<svg xmlns="http://www.w3.org/2000/svg" version="1.1" xmlns:xlink="http://www.w3.org/1999/xlink" xmlns:svgjs="http://svgjs.dev/svgjs" width="1440" height="560" preserveAspectRatio="none" viewBox="0 0 1440 560"><g mask="url(&quot;#SvgjsMask1347&quot;)" fill="none"><rect width="1440" height="560" x="0" y="0" fill="rgba(255, 255, 255, 1)"></rect><path d="M1038.8783083302533 122.63588611256624L976.8382615189482 5.955528163219711 860.1579035696018 67.99557497452471 922.1979503809067 184.67593292387124z" fill="rgba(189, 98, 96, 0.4)" class="triangle-float1"></path><path d="M942.17,69.318C957.742,68.174,967.789,54.38,975.1,40.583C981.827,27.888,985.534,13.12,978.624,0.524C971.482,-12.495,957.012,-19.907,942.17,-19.444C928.066,-19.004,917.132,-9.158,909.453,2.681C900.794,16.031,892.626,31.843,899.639,46.126C907.267,61.662,924.91,70.586,942.17,69.318" fill="rgba(189, 98, 96, 0.4)" class="triangle-float3"></path><path d="M525.819,483.573C568.471,484.938,603.829,451.285,621.921,412.636C637.582,379.179,624.246,342.955,606.913,310.333C587.985,274.709,566.149,232.645,525.819,231.763C484.689,230.864,456.486,269.724,438.343,306.648C422.561,338.768,423.947,374.729,439.809,406.81C458.064,443.731,484.653,482.256,525.819,483.573" fill="rgba(189, 98, 96, 0.4)" class="triangle-float2"></path><path d="M236.118,556.798C288.175,553.158,320.884,505.008,343.824,458.137C363.542,417.848,366.394,372.473,345.844,332.602C323.282,288.827,285.359,248.421,236.118,249.166C187.724,249.898,157.128,294.474,131.995,335.837C105.401,379.605,76.899,428.945,98.73,475.273C123.059,526.903,179.182,560.779,236.118,556.798" fill="rgba(189, 98, 96, 0.4)" class="triangle-float3"></path><path d="M265.0692166766839 163.0480265179333L163.2880388556203 129.97731713808588 130.21732947577289 231.7584949591495 231.99850729683646 264.8292043389969z" fill="rgba(189, 98, 96, 0.4)" class="triangle-float1"></path><path d="M34.119,183.813C47.524,183.604,61.02,179.486,68.24,168.189C76.011,156.03,77.095,140.34,69.899,127.832C62.686,115.295,48.583,108.985,34.119,108.886C19.464,108.786,4.989,114.751,-2.517,127.338C-10.193,140.21,-10.051,156.709,-1.895,169.282C5.656,180.921,20.247,184.029,34.119,183.813" fill="rgba(189, 98, 96, 0.4)" class="triangle-float1"></path><path d="M1258.256,349.005C1284.895,350.62,1308.248,331.012,1320.094,307.097C1330.76,285.563,1324.32,260.999,1312.093,240.311C1300.131,220.071,1281.767,202.356,1258.256,202.466C1234.893,202.575,1215.93,220.014,1205.284,240.811C1195.586,259.756,1198.809,281.198,1208.168,300.313C1219.142,322.728,1233.345,347.495,1258.256,349.005" fill="rgba(189, 98, 96, 0.4)" class="triangle-float2"></path><path d="M812.107,277.511C857.432,277.439,906.697,264.352,927.074,223.866C946.24,185.787,920.659,143.962,897.262,108.326C876.885,77.291,849.226,49.521,812.107,48.763C773.827,47.981,741.77,72.747,720.706,104.72C696.739,141.099,676.138,185.723,696.508,224.231C717.771,264.429,766.632,277.583,812.107,277.511" fill="rgba(189, 98, 96, 0.4)" class="triangle-float3"></path><path d="M786.836,776.66C838.963,775.712,872.077,728.482,899.885,684.381C930.629,635.624,968.467,580.655,943.048,528.922C915.773,473.411,848.685,453.984,786.836,454.302C725.623,454.616,661.355,476.066,633.378,530.513C607.003,581.843,635.901,639.655,666.432,688.627C694.624,733.847,733.557,777.629,786.836,776.66" fill="rgba(189, 98, 96, 0.4)" class="triangle-float3"></path><path d="M1422.0952349926417 61.12013145787834L1332.436449122918 80.17769470585561 1405.8521869297458 205.13709188645277z" fill="rgba(189, 98, 96, 0.4)" class="triangle-float3"></path></g><defs><mask id="SvgjsMask1347"><rect width="1440" height="560" fill="#ffffff"></rect></mask><style>
                @keyframes float1 {
                    0%{transform: translate(0, 0)}
                    50%{transform: translate(-10px, 0)}
                    100%{transform: translate(0, 0)}
                }

                .triangle-float1 {
                    animation: float1 5s infinite;
                }

                @keyframes float2 {
                    0%{transform: translate(0, 0)}
                    50%{transform: translate(-5px, -5px)}
                    100%{transform: translate(0, 0)}
                }

                .triangle-float2 {
                    animation: float2 4s infinite;
                }

                @keyframes float3 {
                    0%{transform: translate(0, 0)}
                    50%{transform: translate(0, -10px)}
                    100%{transform: translate(0, 0)}
                }

                .triangle-float3 {
                    animation: float3 6s infinite;
                }
            </style></defs></svg>